<?xml version="1.0" standalone="no"?>
<!DOCTYPE svg PUBLIC "-//W3C//DTD SVG 20010904//EN"
 "http://www.w3.org/TR/2001/REC-SVG-20010904/DTD/svg10.dtd">
<svg version="1.0" xmlns="http://www.w3.org/2000/svg"
 width="2480.000000pt" height="2640.000000pt" viewBox="0 0 2480.000000 2640.000000"
 preserveAspectRatio="xMidYMid meet">

<g transform="translate(0.000000,2640.000000) scale(0.100000,-0.100000)"
fill="#000000" stroke="none">
<path d="M10140 25859 c-573 -41 -1255 -243 -1898 -562 -225 -112 -322 -167
-692 -393 -173 -105 -540 -326 -815 -489 -583 -347 -701 -421 -907 -568 -690
-493 -1320 -1147 -1811 -1878 -375 -560 -723 -1263 -938 -1896 -149 -441 -252
-859 -308 -1248 -64 -450 -52 -927 34 -1284 173 -717 622 -1230 1275 -1456
446 -154 971 -162 1505 -21 71 19 131 33 133 31 2 -2 -87 -142 -197 -312 -148
-229 -204 -308 -218 -306 -10 1 -63 20 -118 43 -232 96 -432 135 -700 135
-218 0 -339 -19 -516 -81 -193 -67 -332 -142 -694 -374 -126 -81 -320 -200
-430 -265 -794 -467 -1023 -661 -1203 -1020 -209 -418 -221 -907 -29 -1290
182 -365 514 -611 958 -708 181 -41 290 -50 497 -44 264 7 481 52 732 149 113
44 379 176 498 247 87 52 85 52 193 -41 190 -165 703 -537 1014 -735 149 -95
686 -390 865 -475 170 -81 413 -188 428 -188 6 0 13 -4 16 -8 3 -5 -90 -14
-207 -21 -1699 -96 -3492 -247 -5147 -431 -512 -57 -670 -76 -674 -81 -3 -3
804 -5218 808 -5225 1 -1 215 22 476 51 1362 153 2808 279 4238 370 l394 25
71 66 c290 266 702 482 1054 553 328 67 600 44 801 -67 60 -33 180 -152 216
-216 16 -27 36 -71 46 -99 l17 -49 31 44 c41 60 105 116 161 141 69 31 181 34
251 8 104 -39 184 -119 212 -213 l11 -38 86 0 c47 0 241 5 431 10 190 5 759
14 1265 20 l920 10 30 38 c119 149 204 197 336 190 129 -7 235 -77 291 -193
19 -39 26 -45 53 -45 27 0 38 9 79 65 91 124 179 175 301 175 127 0 252 -77
304 -189 l23 -49 192 -6 c105 -3 328 -8 496 -11 1945 -35 4180 -157 6270 -340
690 -61 2287 -225 2426 -250 l32 -6 11 63 c56 335 801 5162 796 5166 -10 11
-1038 125 -1810 202 -771 76 -1979 179 -2532 216 l-103 7 38 42 c20 24 88 101
151 171 287 325 646 804 1009 1347 207 309 274 415 364 577 101 181 178 277
243 305 17 7 54 30 84 50 29 20 173 109 319 197 593 357 884 579 1282 977 310
311 550 591 862 1006 203 270 231 324 244 468 13 152 -42 293 -161 413 -174
176 -410 213 -637 99 -55 -28 -307 -184 -452 -280 -24 -16 11 58 213 456 360
706 430 848 446 914 19 77 19 244 0 320 -60 237 -258 436 -493 496 -209 53
-421 -3 -703 -186 -57 -38 -212 -133 -344 -213 -132 -80 -279 -172 -328 -204
-57 -38 -89 -54 -91 -46 -2 7 -9 38 -15 69 -25 123 -123 278 -233 370 -188
157 -473 193 -697 89 -96 -45 -302 -160 -486 -270 -210 -127 -667 -413 -728
-456 -26 -19 -51 -34 -56 -34 -5 0 -17 12 -26 27 -77 117 -250 242 -416 299
-133 45 -197 55 -395 61 l-192 6 142 226 c213 338 396 617 730 1116 367 547
436 653 759 1167 258 411 338 544 561 934 99 174 130 238 146 299 51 199 0
399 -140 549 -95 101 -211 165 -337 185 -40 6 -530 -6 -1608 -40 -852 -27
-1581 -49 -1619 -49 l-70 0 94 58 c226 139 330 304 330 522 0 156 -45 265
-155 376 -78 79 -157 123 -268 150 -63 16 -113 16 -800 -5 -402 -12 -756 -21
-785 -21 l-53 0 32 46 c52 76 107 204 125 294 66 327 -132 663 -451 767 -105
34 -289 43 -382 20 -165 -43 -294 -109 -573 -296 -96 -65 -246 -162 -334 -215
-87 -54 -299 -188 -470 -299 -342 -220 -413 -262 -484 -284 -29 -9 -139 -20
-282 -28 -187 -11 -249 -18 -305 -35 -84 -27 -205 -86 -296 -146 -36 -24 -69
-44 -72 -44 -2 0 24 48 60 108 326 539 446 1089 343 1562 -84 386 -325 721
-654 910 -353 202 -796 286 -1316 249z m591 -249 c578 -57 961 -295 1133 -706
235 -562 18 -1291 -613 -2053 -384 -463 -895 -883 -1501 -1231 -185 -107 -226
-123 -317 -122 -126 0 -237 73 -308 203 -25 47 -29 64 -30 139 0 77 3 92 33
152 44 90 107 145 283 247 629 365 1089 761 1417 1219 485 676 550 1170 179
1352 -236 116 -658 125 -1112 24 -681 -152 -1361 -481 -2005 -970 -587 -445
-1169 -1104 -1567 -1774 -453 -764 -781 -1658 -900 -2455 -13 -92 -18 -182
-18 -385 0 -232 3 -279 23 -381 65 -346 192 -558 425 -713 396 -264 952 -243
1582 58 551 263 1047 673 1477 1220 48 61 88 114 88 119 0 4 -26 7 -58 7 -216
0 -563 73 -820 172 -499 193 -895 517 -1289 1055 -124 169 -155 232 -161 327
-7 108 15 165 93 243 76 75 140 99 243 90 136 -13 243 -89 353 -249 361 -528
780 -814 1324 -904 182 -31 637 -24 817 12 21 4 44 30 104 122 374 570 855
1037 1303 1266 139 71 319 132 452 152 420 64 771 -141 865 -506 22 -83 22
-259 1 -356 -115 -516 -719 -1081 -1373 -1283 -240 -74 -465 -100 -711 -81
-128 10 -166 10 -178 0 -16 -13 -80 -173 -119 -297 -85 -272 -89 -509 -12
-662 33 -64 113 -135 178 -157 453 -150 1134 336 2012 1434 106 134 147 195
206 307 265 508 650 1174 1061 1837 72 116 129 218 129 232 0 49 3 49 -513 11
-526 -38 -542 -38 -638 11 -65 33 -152 131 -179 201 -62 164 38 379 203 441
57 22 64 22 812 22 l755 0 46 63 c26 34 174 253 329 487 305 459 351 516 462
568 80 37 184 37 263 0 166 -77 250 -247 205 -415 -15 -55 -45 -108 -165 -287
-81 -122 -166 -251 -189 -289 -44 -73 -53 -120 -23 -136 11 -6 353 2 932 20
1159 36 1164 36 1215 15 116 -49 170 -188 115 -295 -26 -52 -91 -106 -143
-120 -23 -6 -598 -42 -1277 -81 l-1235 -71 -28 -32 c-96 -109 -543 -825 -949
-1522 -595 -1019 -1049 -1901 -1129 -2192 -11 -40 -19 -94 -17 -120 3 -40 6
-48 25 -51 32 -5 108 38 203 113 118 94 640 619 849 855 203 229 466 541 608
725 116 149 144 178 195 199 73 31 143 16 212 -44 53 -47 76 -98 76 -168 0
-71 -13 -95 -197 -347 -270 -372 -476 -631 -728 -919 -496 -565 -1003 -966
-1386 -1098 -85 -29 -106 -32 -214 -32 -112 -1 -124 1 -177 27 -93 46 -153
129 -189 263 -26 95 -29 285 -7 405 l14 77 -161 -152 c-189 -179 -275 -250
-425 -351 -508 -344 -1045 -397 -1428 -141 -77 51 -160 128 -219 203 l-40 51
-444 -699 c-1068 -1682 -1517 -2361 -2047 -3089 -80 -110 -144 -209 -148 -226
-3 -20 0 -43 9 -61 98 -188 1231 -939 1853 -1226 539 -250 1000 -368 1434
-368 455 0 804 120 1145 395 108 87 163 110 265 111 100 0 149 -16 228 -77 40
-31 61 -58 89 -114 31 -65 36 -84 37 -147 0 -173 -87 -283 -384 -482 -635
-425 -1424 -515 -2333 -265 -411 113 -987 374 -1472 668 -49 30 -98 58 -110
62 -34 13 -398 259 -600 405 -215 156 -484 363 -656 507 l-117 96 -139 -91
c-240 -159 -444 -261 -672 -337 -412 -138 -844 -131 -1190 19 -498 214 -717
747 -532 1293 80 238 243 467 430 609 82 62 234 140 325 168 327 100 730 52
1086 -130 163 -83 274 -164 525 -385 39 -34 84 -69 102 -78 45 -22 130 -21
170 3 34 21 169 192 385 486 403 548 801 1147 1382 2080 148 237 280 448 294
470 l25 39 -26 -17 c-490 -321 -1072 -523 -1597 -556 -363 -23 -693 40 -990
189 -246 123 -438 295 -601 539 -152 226 -237 454 -292 786 -18 112 -21 172
-22 435 0 193 5 343 13 410 63 508 214 1082 425 1622 744 1897 2134 3355 3844
4034 469 186 897 291 1338 327 94 8 321 6 416 -3z m-1578 -1939 c99 -26 175
-67 203 -108 148 -221 -256 -963 -792 -1454 -235 -216 -491 -403 -825 -604
-118 -71 -230 -141 -250 -156 l-35 -28 -44 55 c-57 71 -157 147 -240 180 -83
33 -314 52 -421 34 -89 -15 -140 -41 -427 -214 -301 -181 -283 -171 -275 -149
21 59 192 414 244 507 336 602 802 1185 1294 1619 l109 96 196 65 c293 98 454
136 765 180 17 2 118 3 225 1 159 -2 209 -7 273 -24z m11131 -1676 c50 -24
100 -74 128 -128 17 -32 22 -59 23 -117 l0 -75 -99 -175 c-194 -340 -310 -536
-519 -869 -317 -506 -400 -634 -834 -1286 -542 -813 -695 -1052 -1035 -1615
-111 -184 -178 -304 -178 -320 0 -15 9 -35 20 -45 20 -18 22 -18 68 0 119 46
364 125 435 140 144 29 273 37 386 25 233 -25 388 -110 507 -275 255 -359 201
-834 -142 -1245 -342 -410 -810 -653 -1424 -740 -122 -17 -158 -25 -171 -40
-15 -17 -51 -181 -79 -360 -21 -134 -30 -344 -21 -460 17 -205 60 -318 141
-365 102 -59 298 12 547 198 360 269 663 574 1064 1072 260 322 384 501 538
777 206 371 422 727 779 1288 296 465 320 497 417 548 44 24 61 27 145 27 84
0 102 -3 151 -28 150 -73 230 -254 184 -413 -17 -62 -63 -139 -408 -684 -411
-648 -669 -1095 -896 -1550 -192 -387 -241 -522 -227 -629 27 -205 266 -152
741 164 385 256 653 540 1068 1131 225 321 275 407 535 919 441 871 511 1001
567 1060 28 29 76 66 106 81 49 26 63 29 154 29 92 0 104 -2 153 -30 73 -40
145 -121 172 -193 17 -45 21 -74 18 -138 -3 -73 -7 -90 -48 -170 -26 -49 -271
-534 -547 -1079 -464 -917 -613 -1207 -913 -1774 -109 -206 -113 -215 -99
-240 24 -43 54 -38 154 25 455 285 966 791 1524 1508 156 200 189 229 276 234
74 5 123 -16 178 -77 72 -80 72 -163 -1 -269 -126 -186 -421 -559 -640 -812
-150 -173 -464 -488 -612 -614 -401 -343 -883 -649 -1295 -823 -50 -21 -97
-43 -106 -48 -8 -6 -69 -100 -134 -210 -413 -698 -944 -1459 -1411 -2020 -145
-174 -420 -453 -573 -581 -453 -380 -980 -588 -1381 -545 -239 26 -382 93
-545 256 -84 83 -109 115 -149 193 -205 400 -104 918 274 1392 293 367 997
897 1595 1199 347 176 604 271 1513 562 l162 52 46 84 c33 60 44 92 42 116 -5
48 -36 46 -158 -11 -497 -233 -887 -249 -1158 -48 -118 88 -206 241 -234 411
l-13 78 -70 -79 c-414 -469 -741 -732 -1074 -865 -157 -62 -267 -82 -431 -76
-114 4 -146 8 -206 31 -164 60 -274 151 -378 313 -208 323 -264 907 -143 1505
12 62 21 121 19 130 -4 21 -42 33 -75 24 -40 -10 -230 -357 -690 -1261 -234
-459 -271 -526 -318 -576 -77 -79 -133 -103 -239 -104 -66 0 -95 5 -133 22
-66 30 -152 115 -184 182 -24 48 -28 68 -28 141 0 47 4 98 8 114 7 26 0 21
-67 -41 -632 -590 -1331 -746 -1831 -410 -266 179 -415 468 -432 835 l-6 123
-31 -38 c-126 -154 -339 -388 -500 -548 -349 -348 -629 -545 -905 -637 -90
-30 -105 -32 -246 -32 l-150 -1 -80 40 c-151 75 -244 195 -285 366 -10 44 -24
87 -31 95 -22 27 -57 13 -162 -66 -603 -454 -1069 -588 -1437 -413 -99 47
-220 167 -268 265 -126 257 -105 609 67 1110 154 450 564 1222 1046 1973 71
110 213 335 317 500 104 165 205 317 225 337 20 20 63 51 97 69 52 28 74 34
146 37 69 3 96 0 141 -17 179 -68 270 -276 200 -460 -9 -26 -118 -204 -241
-396 -586 -917 -781 -1246 -1015 -1715 -219 -438 -317 -717 -319 -910 -1 -143
46 -206 154 -203 159 5 388 128 663 358 463 387 850 854 1117 1350 24 44 108
190 188 325 309 523 587 1017 818 1454 90 171 142 232 231 274 47 21 73 26
138 27 107 0 170 -23 240 -86 70 -65 106 -137 113 -228 4 -61 1 -77 -33 -162
-96 -239 -325 -661 -763 -1404 -430 -729 -916 -1608 -977 -1768 -113 -298 506
140 1114 787 461 490 728 808 826 981 141 250 386 601 565 810 480 558 1107
899 1557 846 199 -24 324 -81 448 -205 92 -92 131 -158 171 -291 24 -80 27
-106 28 -240 0 -125 -3 -164 -22 -233 -45 -165 -121 -313 -254 -495 -76 -103
-382 -409 -467 -465 -157 -104 -314 -92 -450 36 -75 70 -106 145 -106 252 0
110 28 171 117 256 310 296 368 362 440 501 105 203 -13 248 -267 102 -211
-121 -398 -270 -592 -472 -152 -159 -264 -300 -398 -502 -437 -660 -566 -1284
-318 -1533 73 -73 117 -87 263 -87 114 1 133 3 217 32 145 51 321 144 440 235
549 415 1070 929 1426 1406 72 97 140 209 256 420 616 1122 1230 2159 1870
3155 246 383 437 671 469 709 16 18 97 134 179 258 179 268 404 584 681 959
112 150 202 275 200 276 -5 5 -1799 -52 -1804 -57 -2 -3 177 -136 398 -295
222 -160 413 -302 425 -315 56 -59 67 -144 29 -223 -57 -120 -179 -168 -287
-112 -60 31 -1528 974 -1558 1001 -70 62 -92 205 -47 301 29 63 102 129 158
144 45 11 3039 112 3218 107 69 -1 106 -7 134 -21z m-5044 -700 c0 -2 -46 -32
-102 -66 -235 -143 -348 -326 -348 -563 0 -161 54 -292 164 -401 60 -59 197
-151 844 -565 425 -272 788 -502 807 -510 19 -8 35 -18 35 -22 0 -4 -20 -35
-44 -70 -130 -187 -708 -1094 -926 -1453 -40 -66 -74 -121 -75 -123 -1 -2 -27
8 -56 21 -172 76 -312 101 -524 94 -172 -6 -263 -22 -424 -76 -218 -73 -374
-158 -1065 -578 -275 -166 -501 -301 -503 -300 -2 2 22 59 52 126 31 67 70
163 86 214 29 86 31 99 26 202 -5 127 -28 207 -84 305 -54 92 -182 217 -264
258 -37 17 -72 32 -79 32 -22 0 -5 17 100 100 449 356 917 875 1488 1653 256
348 273 381 280 543 8 183 -34 292 -158 415 -87 87 -166 131 -275 154 -177 37
-277 6 -575 -181 -96 -61 -188 -119 -205 -130 -16 -10 -27 -14 -23 -9 230 398
491 840 503 853 2 2 1211 77 1313 81 17 0 32 -1 32 -4z m-9459 -2410 c54 -40
136 -96 183 -124 119 -72 369 -191 506 -241 113 -41 402 -120 440 -120 11 0
20 -3 20 -7 0 -5 -49 -58 -108 -119 l-107 -111 -105 -19 c-58 -10 -143 -18
-190 -18 -251 2 -520 127 -663 310 -102 129 -177 343 -202 573 l-7 64 68 -57
c38 -32 112 -91 165 -131z m11621 -6102 c10 -9 18 -20 18 -24 0 -12 -198 -132
-435 -264 -350 -196 -577 -340 -825 -525 -481 -358 -775 -651 -961 -954 l-52
-86 -91 0 c-50 0 -258 5 -461 10 -1189 31 -3202 31 -4421 1 -197 -5 -360 -8
-362 -7 -4 4 325 204 963 585 550 329 662 401 813 522 47 38 89 69 94 69 4 0
50 -11 102 -25 149 -38 253 -48 436 -42 324 11 589 97 944 305 l138 82 69 -64
c119 -110 263 -166 429 -166 107 0 191 20 294 69 45 21 245 138 445 260 201
121 368 221 373 221 4 0 15 -16 23 -37 29 -68 128 -205 204 -282 304 -307 775
-380 1246 -194 165 64 419 207 860 482 72 44 132 81 134 81 3 0 13 -7 23 -17z
m-4334 -2852 l344 -6 19 -24 c19 -23 20 -38 17 -257 -3 -228 -4 -234 -26 -256
l-23 -23 -619 4 -620 4 0 -332 0 -331 369 0 370 0 28 -24 28 -24 -1 -234 c-1
-250 -5 -271 -50 -288 -14 -6 -181 -10 -385 -10 l-359 0 0 -340 0 -340 618 -1
c451 0 626 -3 652 -12 58 -20 61 -36 58 -285 l-3 -224 -28 -24 -28 -24 -934 2
-934 3 -23 23 -23 23 -6 677 c-23 2471 -23 2264 -1 2292 20 25 22 25 214 30
277 8 947 9 1346 1z m-3304 -41 c14 -5 30 -19 37 -32 9 -16 21 -352 43 -1224
17 -662 34 -1205 38 -1209 3 -3 203 -1 444 4 659 16 777 15 804 -7 31 -25 38
-84 39 -302 1 -197 -5 -219 -59 -236 -22 -7 -183 -14 -425 -17 -214 -4 -613
-12 -886 -19 -461 -11 -499 -11 -522 5 -16 10 -28 30 -32 49 -5 31 -95 2749
-95 2870 0 46 5 62 24 85 l24 28 164 6 c279 9 376 9 402 -1z m6040 -16 c173
-6 211 -16 222 -59 3 -14 -18 -679 -48 -1479 -59 -1582 -53 -1497 -112 -1512
-13 -3 -136 -2 -274 3 -271 10 -295 15 -308 69 -8 33 81 2923 91 2948 15 35
62 46 170 41 55 -3 172 -7 259 -11z m-7597 -50 c144 -30 254 -104 311 -211 60
-115 59 -98 102 -1193 45 -1141 46 -1202 25 -1283 -47 -181 -179 -295 -381
-332 -43 -8 -227 -21 -409 -30 -181 -8 -511 -25 -732 -37 -374 -20 -407 -20
-482 -6 -227 45 -349 176 -381 411 -6 40 -40 538 -76 1107 -57 893 -65 1046
-55 1114 30 221 172 353 426 395 55 9 407 30 1090 65 365 19 473 19 562 0z
m8889 -4 c113 -9 138 -20 176 -78 36 -54 522 -908 753 -1322 254 -455 243
-437 249 -420 2 8 27 390 54 849 46 763 52 836 70 860 18 24 26 26 103 29 46
1 169 -4 273 -11 186 -14 190 -15 213 -41 14 -16 23 -40 23 -59 0 -72 -190
-2855 -197 -2886 -4 -19 -20 -43 -34 -54 -26 -18 -34 -19 -210 -7 -215 14
-246 20 -281 57 -14 16 -114 188 -221 383 -210 384 -418 757 -677 1217 -162
287 -165 291 -172 255 -4 -20 -26 -419 -48 -887 -23 -467 -45 -864 -51 -881
-17 -55 -39 -58 -305 -45 -252 12 -282 18 -298 63 -9 26 107 2855 120 2923 7
36 21 54 49 66 21 9 237 3 411 -11z m-11612 -153 c18 -18 25 -39 30 -93 12
-131 196 -2786 196 -2833 0 -37 -5 -52 -24 -70 -21 -20 -42 -24 -197 -36 -379
-29 -351 -29 -381 -5 -16 12 -30 35 -33 53 -3 18 -25 290 -49 605 -25 316 -46
576 -49 578 -2 2 -170 -9 -373 -26 -203 -17 -435 -35 -516 -42 -82 -6 -152
-14 -157 -17 -4 -3 13 -249 40 -546 26 -297 48 -572 49 -611 0 -87 -12 -101
-96 -114 -113 -17 -460 -43 -487 -36 -15 3 -33 19 -41 34 -10 19 -57 475 -151
1477 -150 1581 -144 1483 -85 1512 14 6 143 21 286 34 247 22 263 22 287 6 16
-10 30 -32 36 -54 5 -21 30 -285 56 -588 26 -302 48 -551 49 -552 1 -1 73 5
161 13 88 8 326 27 529 44 203 16 370 31 371 32 2 2 -17 259 -41 573 -24 313
-41 580 -37 593 11 46 41 54 266 72 308 25 333 25 361 -3z m16095 -168 c29
-10 31 -14 31 -59 0 -83 -269 -2896 -280 -2924 -18 -48 -41 -51 -263 -32 -293
26 -329 31 -349 57 -10 12 -18 38 -18 58 -1 20 43 539 97 1153 53 614 95 1119
93 1121 -3 2 -94 -7 -202 -21 -109 -13 -208 -22 -222 -18 -41 10 -46 47 -31
217 15 162 24 188 74 213 24 13 851 225 931 239 49 8 107 7 139 -4z m-7092
-907 c294 -9 269 16 265 -270 -2 -119 -8 -231 -13 -248 -17 -56 -20 -56 -538
-46 -524 10 -514 9 -527 78 -3 19 -5 127 -2 239 4 199 5 205 28 230 l23 25
271 -1 c149 0 371 -4 493 -7z"/>
<path d="M11432 21154 c-122 -32 -382 -188 -547 -326 -188 -157 -574 -585
-591 -655 -15 -57 14 -71 115 -54 328 55 704 295 977 621 189 226 243 377 149
416 -40 17 -36 17 -103 -2z"/>
<path d="M4460 14755 c-177 -50 -332 -237 -376 -453 -38 -193 24 -340 175
-417 133 -67 373 -94 557 -61 201 35 460 144 677 285 88 58 107 75 107 95 0
23 -41 63 -290 277 -155 133 -299 216 -450 260 -101 28 -319 36 -400 14z"/>
<path d="M18450 16828 c-275 -42 -849 -388 -1222 -738 -67 -62 -78 -77 -78
-106 0 -51 21 -57 153 -44 141 13 332 44 464 75 260 61 527 196 661 334 116
119 222 339 202 420 -12 52 -80 74 -180 59z"/>
<path d="M19835 13071 c-401 -138 -871 -369 -1220 -600 -251 -166 -512 -370
-630 -492 -405 -420 -567 -836 -393 -1016 55 -56 119 -78 233 -77 119 1 208
26 356 102 373 190 731 531 1207 1151 266 346 632 880 632 921 0 23 -27 61
-41 59 -2 0 -67 -22 -144 -48z"/>
<path d="M7740 9259 c-503 -26 -955 -51 -956 -52 -2 -6 109 -1903 112 -1906 2
-3 147 3 322 12 174 9 423 22 552 28 129 7 236 13 238 14 4 3 -78 1843 -84
1883 -3 17 -10 31 -17 31 -7 -1 -82 -6 -167 -10z"/>
<path d="M8065 5959 c-600 -46 -1236 -468 -1612 -1069 -206 -329 -348 -701
-404 -1055 -18 -116 -15 -333 6 -430 57 -266 216 -434 481 -507 117 -32 348
-32 493 0 179 40 413 135 554 225 31 20 61 37 66 37 4 0 13 -11 19 -25 26 -58
119 -82 188 -49 38 18 59 50 169 254 165 305 296 525 333 558 63 58 303 236
407 305 178 116 337 193 370 181 36 -14 5 -73 -165 -319 -185 -267 -311 -485
-363 -630 -72 -203 -51 -352 58 -409 58 -30 161 -28 235 6 120 56 321 217 464
371 l82 87 -1 -42 c0 -24 4 -65 8 -93 l8 -50 -77 -39 c-278 -142 -509 -432
-591 -743 -31 -120 -43 -358 -23 -481 16 -103 71 -269 118 -354 l37 -70 -25
-17 c-101 -66 -150 -127 -150 -185 0 -43 43 -109 97 -149 543 -396 2815 -562
4463 -327 1017 145 1460 406 1099 646 -390 259 -1588 427 -2932 412 l-399 -5
6 26 c14 62 18 291 7 371 -34 231 -137 450 -291 623 -29 32 -51 59 -49 60 2 2
28 14 57 27 62 28 149 86 221 148 l51 44 -6 -59 c-8 -79 15 -162 55 -196 97
-81 305 -6 551 199 41 34 93 81 115 103 21 23 42 41 46 41 3 0 0 -24 -8 -52
-8 -29 -15 -84 -16 -123 -3 -203 129 -255 358 -139 116 59 221 141 385 300
l155 152 1 -72 c1 -127 51 -235 150 -325 155 -142 404 -131 645 29 l74 48 16
-36 c26 -59 61 -85 121 -90 83 -6 105 14 222 214 340 576 354 595 591 785 160
129 253 190 390 255 127 62 179 75 188 50 10 -26 -53 -134 -196 -340 -193
-275 -279 -428 -352 -626 -39 -106 -41 -232 -5 -305 59 -118 184 -132 359 -40
102 54 194 128 342 275 l136 136 6 -74 c7 -91 47 -180 108 -240 64 -62 118
-85 215 -90 103 -5 189 18 320 88 110 58 132 55 95 -14 -13 -25 -31 -48 -40
-50 -9 -3 -65 -17 -126 -31 -351 -85 -750 -255 -977 -418 -143 -102 -282 -257
-348 -387 -163 -323 25 -625 371 -596 149 12 265 58 413 164 225 162 527 515
829 973 l117 175 56 18 c84 27 296 136 409 212 116 77 183 131 278 223 l67 65
0 -36 c0 -148 92 -311 215 -384 128 -75 306 -69 479 15 212 104 506 392 715
700 80 118 88 150 46 195 -29 31 -79 35 -111 8 -12 -9 -64 -66 -115 -127 -328
-386 -630 -598 -806 -566 -60 11 -92 36 -115 89 -35 77 -15 213 48 347 16 33
24 39 44 37 14 -1 77 -3 140 -3 137 -1 230 20 359 81 114 55 193 113 282 208
100 106 141 188 147 295 6 94 -13 151 -70 213 -60 66 -124 89 -238 88 -81 0
-107 -5 -179 -32 -224 -84 -507 -346 -656 -607 -125 -218 -462 -555 -686 -686
-121 -70 -126 -52 -33 111 36 63 156 277 266 474 110 198 232 412 271 475 65
106 71 121 72 171 0 87 -52 140 -138 140 -65 0 -102 -30 -169 -140 -33 -54
-65 -95 -74 -95 -9 0 -32 25 -52 55 -72 106 -161 150 -307 150 -294 0 -655
-252 -912 -635 -60 -90 -286 -340 -421 -467 -146 -137 -352 -298 -383 -298
-22 0 1 64 58 160 31 52 144 225 250 384 270 402 324 525 294 661 -27 119
-114 186 -254 193 -100 5 -181 -13 -324 -70 -57 -22 -105 -39 -107 -37 -3 2 0
22 6 44 16 59 3 109 -37 150 -36 36 -87 52 -129 41 -43 -11 -84 -55 -137 -149
-58 -100 -353 -591 -405 -672 -43 -67 -166 -207 -294 -336 -247 -245 -465
-368 -601 -338 -61 14 -88 34 -110 82 -35 77 -19 200 41 334 l29 64 38 -8 c82
-16 243 -6 336 21 210 62 402 198 508 360 123 187 81 397 -96 478 -42 19 -66
23 -145 22 -137 -1 -240 -42 -410 -162 -122 -87 -311 -293 -404 -440 -65 -104
-417 -480 -589 -630 -105 -92 -163 -132 -190 -132 -17 0 -19 5 -14 38 17 104
292 591 595 1052 158 242 305 454 571 830 107 151 201 291 209 311 46 118 -78
228 -195 173 -25 -13 -67 -63 -162 -193 -329 -453 -670 -963 -903 -1349 -39
-64 -109 -162 -157 -217 -286 -332 -618 -645 -683 -645 -18 0 -20 5 -15 39 13
102 286 584 605 1071 132 202 329 487 585 848 107 151 183 267 187 288 27 120
-103 218 -206 155 -81 -49 -720 -982 -1081 -1576 -119 -197 -147 -234 -259
-357 -239 -260 -467 -435 -557 -426 -28 3 -32 7 -35 35 -11 115 324 679 646
1087 74 94 80 125 40 198 -29 51 -72 72 -137 66 -62 -6 -84 -24 -178 -150 -36
-49 -71 -88 -79 -88 -7 0 -20 13 -28 28 -22 44 -91 107 -144 133 -41 21 -61
24 -167 24 -100 0 -132 -4 -190 -24 -101 -34 -236 -106 -329 -174 -107 -79
-265 -242 -346 -356 -172 -244 -564 -638 -794 -800 -150 -104 -110 -14 187
430 306 458 354 553 345 695 -15 237 -244 301 -570 159 -94 -40 -108 -42 -108
-15 0 28 274 454 549 853 51 74 61 96 61 130 0 108 -109 177 -207 131 -91 -44
-672 -938 -1149 -1769 -119 -209 -190 -293 -349 -422 -479 -386 -1040 -498
-1268 -254 -142 152 -164 377 -72 736 86 336 238 661 427 914 82 109 272 308
374 392 176 144 421 281 612 343 194 63 243 71 412 71 152 0 156 -1 215 -30
76 -38 100 -77 98 -155 -2 -97 -58 -209 -182 -362 -106 -132 -269 -258 -474
-368 -102 -54 -131 -82 -142 -131 -14 -61 60 -149 126 -149 30 0 155 62 281
141 249 154 446 357 556 570 64 127 77 178 77 314 0 113 -2 124 -29 180 -38
77 -115 154 -189 189 -104 49 -259 69 -432 55z m2550 -1591 c25 -19 27 -26 23
-78 -14 -194 -373 -670 -638 -845 -62 -41 -70 -44 -161 -50 -95 -7 -96 -6
-102 17 -25 90 54 317 165 475 160 228 384 421 558 480 82 28 120 29 155 1z
m5973 -4 c39 -53 -12 -198 -134 -384 -218 -332 -539 -620 -691 -620 -56 0 -73
24 -73 103 0 204 221 554 474 752 87 68 210 139 279 161 55 18 127 12 145 -12z
m-2820 -17 c9 -81 -182 -266 -351 -341 -74 -32 -166 -51 -180 -37 -16 16 -1
40 76 125 91 101 215 199 312 247 96 47 138 49 143 6z m4480 0 c4 -33 -27 -85
-92 -155 -91 -99 -235 -187 -356 -218 -127 -32 -121 3 23 149 117 118 194 177
300 228 79 38 121 36 125 -4z m-8207 -1151 c191 -15 430 -129 569 -270 30 -31
50 -56 46 -56 -5 0 11 -20 35 -44 25 -24 52 -59 61 -77 9 -19 34 -72 57 -119
25 -52 49 -123 62 -184 l21 -98 -37 -98 c-26 -68 -52 -117 -85 -158 -26 -33
-53 -69 -59 -81 -7 -11 -19 -21 -29 -21 -14 0 -17 9 -17 47 0 41 -4 49 -27 62
-25 14 -29 14 -55 -5 -15 -11 -32 -35 -38 -52 -8 -28 -14 -32 -43 -32 -47 0
-69 -14 -92 -60 -14 -28 -25 -38 -36 -33 -13 5 -15 14 -10 46 8 46 -11 83 -50
97 -28 11 -52 2 -86 -32 -15 -15 -28 -18 -49 -14 -16 3 -43 9 -60 12 -22 5
-42 0 -69 -15 -36 -20 -42 -21 -74 -7 -39 16 -56 41 -56 83 0 39 -12 54 -62
78 -37 17 -44 25 -49 59 -4 27 -16 47 -35 63 -36 28 -58 29 -85 2 -30 -30 -21
-58 28 -83 23 -11 43 -26 43 -32 1 -45 -95 -32 -107 14 -4 15 -6 35 -4 44 4
28 -16 54 -64 84 -52 33 -62 54 -45 95 11 27 10 32 -10 54 -12 13 -36 29 -53
36 -43 17 -42 16 -25 36 33 38 31 60 -8 103 -27 29 -35 45 -28 54 5 7 18 26
29 41 l19 28 -22 15 c-16 10 -22 24 -22 51 0 66 47 83 90 31 23 -28 27 -29 45
-17 18 14 18 16 2 41 -14 21 -25 26 -57 26 -72 0 -94 58 -39 104 17 14 36 26
42 26 6 0 1 7 -11 16 -12 8 -22 19 -22 24 0 14 119 67 204 90 77 22 223 39
281 33 17 -1 55 -4 86 -7z m-601 -152 c0 -15 -25 -51 -48 -71 -23 -19 -25 -25
-14 -40 34 -49 24 -78 -29 -78 -27 0 -35 4 -37 22 -4 29 21 76 70 129 37 40
58 54 58 38z m-185 -194 c9 -14 -13 -50 -30 -50 -18 0 -19 14 -5 41 12 21 25
25 35 9z m113 -53 c-2 -7 3 -27 11 -45 16 -38 3 -62 -35 -62 -47 0 -59 66 -19
106 24 24 48 25 43 1z m6539 7 c5 -15 -175 -255 -314 -419 -172 -203 -319
-332 -452 -398 -57 -28 -76 -32 -144 -32 -74 0 -80 2 -103 28 -65 76 -3 239
150 393 156 155 431 316 691 404 118 40 165 46 172 24z m-6531 -198 c0 -21 11
-50 23 -67 27 -36 23 -43 -18 -34 -33 7 -71 47 -71 75 0 23 39 72 53 67 6 -2
12 -20 13 -41z m38 -186 c3 -20 16 -37 36 -48 40 -23 39 -44 -2 -40 -43 4 -71
43 -62 86 8 40 20 41 28 2z m98 -211 c29 -15 37 -24 29 -32 -14 -14 -56 5 -71
33 -13 25 -9 25 42 -1z m304 -176 c19 -12 22 -18 12 -24 -22 -15 -46 -10 -74
14 -19 17 -25 29 -21 42 8 19 0 22 83 -32z m812 -70 c-17 -36 -45 -73 -55 -73
-20 0 -16 57 5 69 20 12 55 14 50 4z m-366 -41 l47 -18 -36 -24 c-27 -18 -39
-21 -51 -13 -19 11 -27 37 -18 59 7 17 2 18 58 -4z m-170 -59 c8 -10 3 -13
-19 -13 -22 0 -33 7 -41 25 -7 14 -12 28 -12 31 0 7 60 -29 72 -43z"/>
<path d="M9534 3005 c-10 -24 5 -36 27 -24 16 8 18 13 8 25 -15 18 -28 18 -35
-1z"/>
<path d="M9667 2843 c-19 -19 20 -38 44 -22 12 8 11 11 -1 19 -18 11 -34 13
-43 3z"/>
<path d="M9497 2753 c-13 -13 -7 -50 11 -66 33 -30 82 -16 82 23 0 35 -70 67
-93 43z"/>
<path d="M9703 2713 c-20 -7 -15 -41 6 -53 30 -16 81 -13 81 5 0 35 -51 63
-87 48z"/>
<path d="M10737 2665 c16 -48 33 -68 33 -38 0 17 -35 83 -44 83 -3 0 2 -20 11
-45z"/>
<path d="M9556 2604 c-37 -36 -1 -94 58 -94 65 0 72 54 13 91 -39 23 -51 24
-71 3z"/>
<path d="M9798 2553 c-23 -6 -34 -49 -18 -68 20 -24 78 -39 95 -25 27 23 8 90
-25 90 -5 0 -14 2 -22 4 -7 2 -21 2 -30 -1z"/>
<path d="M10700 2527 c0 -31 19 -87 30 -87 28 0 15 103 -13 108 -12 3 -17 -3
-17 -21z"/>
<path d="M10804 2439 c4 -29 12 -62 19 -73 10 -20 11 -19 21 12 13 44 -3 106
-28 110 -17 4 -18 0 -12 -49z"/>
<path d="M9627 2443 c-9 -11 -17 -26 -17 -35 0 -28 40 -67 76 -74 42 -8 64 8
64 45 0 56 -88 102 -123 64z"/>
<path d="M10272 2443 c2 -12 12 -18 28 -18 36 0 33 29 -3 33 -23 3 -28 0 -25
-15z"/>
<path d="M10484 2436 c-9 -24 4 -48 23 -44 12 2 18 12 18 28 0 29 -32 41 -41
16z"/>
<path d="M10626 2394 c-8 -22 -8 -39 4 -69 8 -22 13 -24 29 -15 42 22 39 100
-3 100 -13 0 -27 -7 -30 -16z"/>
<path d="M9870 2350 c-11 -11 -20 -28 -20 -38 0 -51 83 -96 126 -67 41 27 38
87 -6 110 -40 21 -76 19 -100 -5z"/>
<path d="M10102 2348 c-7 -7 -12 -21 -12 -33 0 -30 19 -45 57 -45 49 0 65 46
25 78 -20 15 -54 16 -70 0z"/>
<path d="M10762 2338 c-5 -7 -13 -32 -17 -56 -5 -34 -3 -47 11 -63 34 -38 54
-16 54 63 0 62 -22 88 -48 56z"/>
<path d="M10335 2314 c-10 -10 -13 -24 -9 -38 10 -33 20 -39 51 -29 34 12 44
50 17 70 -24 17 -39 16 -59 -3z"/>
<path d="M10520 2270 c-36 -36 -21 -100 22 -100 24 0 58 35 58 60 0 21 -33 60
-50 60 -5 0 -19 -9 -30 -20z"/>
<path d="M10181 2201 c-28 -28 -27 -75 1 -95 46 -32 108 -7 108 43 0 54 -72
89 -109 52z"/>
<path d="M10676 2198 c-17 -24 -21 -84 -7 -106 14 -23 55 -10 70 22 32 67 -24
141 -63 84z"/>
<path d="M9960 2163 c-40 -52 -9 -100 76 -118 71 -14 105 103 39 133 -46 21
-91 15 -115 -15z"/>
<path d="M10404 2168 c-26 -12 -47 -54 -39 -78 6 -19 45 -40 75 -40 39 0 68
83 38 108 -22 17 -52 21 -74 10z"/>
</g>
</svg>
